<?xml version="1.0" encoding="utf-8"?>
<svg id="master-artboard" viewBox="0 0 32 32" version="1.1" xmlns="http://www.w3.org/2000/svg" x="0px" y="0px" style="enable-background:new 0 0 336 235.2;" width="32px" height="32px"><rect id="ee-background" x="0" y="0" width="32" height="32" style="fill: white; fill-opacity: 0; pointer-events: none;"/>














<g transform="matrix(0.7291666666666666, 0, 0, 0.7291666666666666, -0.00003215062679373659, 96.24994355779063)"><path d="M662.08,419.88h-.34l-37.07-37.07a7.2,7.2,0,0,0-10.18,0l-37.07,37.07H526.67l-37.08-37.07a7.2,7.2,0,0,0-10.18,0l-37.07,37.07V467.6h0l82.4,84.65H455l-22.74-22.74-22.74,22.74L361.81,600H591.88V552.25L509.47,467.6h67L595,486.16l18.59-18.56h.74Z" transform="matrix(0.14280745387077332, 0, 0, 0.14280745387077332, -50.02571868735595, -182.24009704589844)"/></g></svg>