<?xml version="1.0" encoding="UTF-8"?>
<svg id="Logo" xmlns="http://www.w3.org/2000/svg" viewBox="0 0 1200 600">
  <path d="M982.78,113.33H217.23c-24.93,0-45.23,20.29-45.23,45.23v188.9c0,24.95,20.3,45.23,45.23,45.23h663.19l61.54,79.17c7.64,9.82,15.79,14.79,24.25,14.79,5.46,0,10.55-2.11,14.38-5.94,4.56-4.59,6.87-11,6.86-19.11l-.08-69.16c22.78-2.31,40.64-21.6,40.64-45v-188.89c0-24.96-20.29-45.23-45.22-45.23ZM1011.34,347.47c0,15.78-12.8,28.56-28.56,28.56h-12.1v1.11l.12,84.57c-.02,5.53-1.76,8.29-4.59,8.29s-6.76-2.8-11.1-8.37l-66.52-85.61H217.23c-15.79,0-28.56-12.78-28.56-28.56v-187.81c0-15.78,12.78-28.56,28.56-28.56h765.55c15.78,0,28.56,12.8,28.56,28.56v187.81Z"/>
  <path d="M330.47,177.77c-4.53,0-8.02,1.45-9.06,5.36l-31.29,111.56-31.5-111.56c-1.04-3.92-4.53-5.36-9.06-5.36-7.19,0-16.87,4.53-16.87,11.12,0,.41.21,1.23.41,2.06l39.73,129.48c2.06,6.17,9.47,9.06,17.29,9.06s15.44-2.89,17.29-9.06l39.52-129.48c.21-.83.41-1.43.41-2.06,0-6.38-9.66-11.12-16.87-11.12Z"/>
  <path d="M434.81,261.96c15.44-4.74,26.97-17.5,26.97-41.16,0-32.75-21.82-43.03-48.79-43.03h-40.75c-5.15,0-8.64,3.91-8.64,8.23h-.02v133.83c0,5.55,6.59,8.44,13.38,8.44s13.38-2.89,13.38-8.44v-53.73h17.29l29.24,56.81c2.06,4.11,5.57,6.38,9.27,6.38,7.81,0,16.67-7.21,16.67-14,0-.83-.19-2.26-1.02-3.3l-26.97-50.02ZM413.01,245.07h-22.65v-43.84h22.65c13.38,0,22.03,5.76,22.03,22.03s-8.64,21.82-22.03,21.82Z"/>
  <polygon points="771.7 274.52 807.52 274.52 789.61 211.33 771.7 274.52"/>
  <path d="M938.76,164.13h-432.7c-15.78,0-28.56,12.79-28.56,28.56v120.64c0,15.78,12.79,28.56,28.56,28.56h432.7c15.78,0,28.56-12.79,28.56-28.56v-120.64c0-15.78-12.79-28.56-28.56-28.56ZM548.36,305.98v.03c18.72,0,20.38-13.38,20.99-22.03.41-6.38,6.17-8.44,13.17-8.44,9.27,0,13.59,2.68,13.59,13.17,0,24.91-20.38,40.75-49.2,40.75-25.93,0-47.34-12.76-47.34-47.15v-57.43c0-34.37,21.61-47.15,47.54-47.15,28.61,0,49,15.23,49,39.11,0,10.7-4.32,13.17-13.38,13.17-7.62,0-13.17-2.26-13.38-8.44-.41-6.38-1.85-20.38-21.4-20.38-13.8,0-21.61,7.62-21.61,23.67v57.43c0,16.06,7.81,23.67,22.03,23.67ZM716.11,319.8v.02c0,5.55-6.79,8.44-13.38,8.44s-13.38-2.89-13.38-8.44v-59.08h-46.32v59.08c0,5.55-6.79,8.44-13.38,8.44s-13.38-2.89-13.38-8.44v-133.82c0-5.76,6.59-8.23,13.38-8.23s13.38,2.47,13.38,8.23v53.73h46.32v-53.73c0-5.76,6.59-8.23,13.38-8.23s13.38,2.47,13.38,8.23v133.8ZM830.15,328.25h0c-4.53,0-8.02-1.43-9.06-5.36l-7.83-27.39h-47.15l-7.81,27.39c-1.04,3.91-4.53,5.36-9.06,5.36-7.21,0-16.87-4.53-16.87-11.12,0-.41.21-1.23.41-2.06l39.73-129.48c1.85-6.17,9.47-9.06,17.08-9.06s15.44,2.89,17.29,9.06l39.73,129.48c.21.83.41,1.43.41,2.06,0,6.38-9.68,11.12-16.87,11.12ZM936.77,201.85h-30.05v117.94c0,5.55-6.79,8.44-13.38,8.44s-13.38-2.89-13.38-8.44v-117.94h-30.26c-5.34,0-8.44-5.57-8.44-12.14,0-5.76,2.68-11.95,8.44-11.95h87.07c5.76,0,8.44,6.17,8.44,11.95,0,6.38-3.09,12.14-8.44,12.14Z"/>
</svg>